/* XPM */
static char * C:\Users\Kevin\Desktop\New folder (5)\bitcoin16_xpm[] = {
"16 16 169 2",
"  	c None",
". 	c #383B3C",
"+ 	c #313536",
"@ 	c #2A201F",
"# 	c #0D100B",
"$ 	c #0A0E07",
"% 	c #0D100C",
"& 	c #0F1110",
"* 	c #141211",
"= 	c #302A2C",
"- 	c #44474E",
"; 	c #292B28",
"> 	c #0F120C",
", 	c #262927",
"' 	c #525658",
") 	c #35393A",
"! 	c #191D19",
"~ 	c #1A1C1A",
"{ 	c #111412",
"] 	c #0F120F",
"^ 	c #0F1312",
"/ 	c #1B1E20",
"( 	c #505355",
"_ 	c #666A6C",
": 	c #66696C",
"< 	c #676A6C",
"[ 	c #767B83",
"} 	c #515457",
"| 	c #5F6166",
"1 	c #5D6063",
"2 	c #7F8387",
"3 	c #46474B",
"4 	c #1C1D1D",
"5 	c #0F1410",
"6 	c #4B4F53",
"7 	c #353535",
"8 	c #414244",
"9 	c #4B4E50",
"0 	c #525557",
"a 	c #515355",
"b 	c #0A0C06",
"c 	c #484A4C",
"d 	c #727679",
"e 	c #36383A",
"f 	c #75767C",
"g 	c #525358",
"h 	c #64676A",
"i 	c #292B2C",
"j 	c #242421",
"k 	c #3A3B3A",
"l 	c #1E1B16",
"m 	c #453A3A",
"n 	c #1F0F0B",
"o 	c #1C0C07",
"p 	c #190E0B",
"q 	c #161311",
"r 	c #323436",
"s 	c #5E5F65",
"t 	c #82848A",
"u 	c #1C1D1E",
"v 	c #341412",
"w 	c #360C0B",
"x 	c #300505",
"y 	c #270302",
"z 	c #200102",
"A 	c #210304",
"B 	c #2B0A0A",
"C 	c #2F0506",
"D 	c #360909",
"E 	c #310D0D",
"F 	c #312022",
"G 	c #181919",
"H 	c #1C1E1F",
"I 	c #3F4348",
"J 	c #3C0C0C",
"K 	c #260201",
"L 	c #190605",
"M 	c #130D0D",
"N 	c #999898",
"O 	c #959595",
"P 	c #C8C7C8",
"Q 	c #727272",
"R 	c #ACACAB",
"S 	c #949190",
"T 	c #463736",
"U 	c #280303",
"V 	c #370A0A",
"W 	c #261111",
"X 	c #323538",
"Y 	c #6C4A50",
"Z 	c #2B0202",
"` 	c #352423",
" .	c #6C6C6C",
"..	c #010101",
"+.	c #060606",
"@.	c #7E7E7E",
"#.	c #FFFFFF",
"$.	c #434343",
"%.	c #101010",
"&.	c #282828",
"*.	c #979797",
"=.	c #878685",
"-.	c #372423",
";.	c #310607",
">.	c #362C2E",
",.	c #342324",
"'.	c #8A8A8A",
").	c #7A7A7A",
"!.	c #575757",
"~.	c #070707",
"{.	c #030303",
"].	c #898989",
"^.	c #AFAFAF",
"/.	c #B6B5B5",
"(.	c #635B5A",
"_.	c #3D3032",
":.	c #696A6D",
"<.	c #A6A6A6",
"[.	c #D1D1D1",
"}.	c #8D8D8D",
"|.	c #747474",
"1.	c #BFBFBF",
"2.	c #FAFAFA",
"3.	c #C5C5C5",
"4.	c #6E6E6E",
"5.	c #6B6B6B",
"6.	c #E0E0E0",
"7.	c #ABABAB",
"8.	c #B8B8B8",
"9.	c #9D9E9D",
"0.	c #1A1C1D",
"a.	c #939495",
"b.	c #FEFEFE",
"c.	c #EBEBEB",
"d.	c #DBDBDB",
"e.	c #EAEAEA",
"f.	c #AAAAAA",
"g.	c #B6B6B5",
"h.	c #555555",
"i.	c #88898C",
"j.	c #B2B1B1",
"k.	c #FEFEFD",
"l.	c #FEFEFF",
"m.	c #DDDDDD",
"n.	c #E3E3E3",
"o.	c #F9F9F9",
"p.	c #F2F2F2",
"q.	c #8D8E8F",
"r.	c #56575A",
"s.	c #909090",
"t.	c #C7C7C7",
"u.	c #A7A7A7",
"v.	c #A8A8A8",
"w.	c #C1C1C1",
"x.	c #949494",
"y.	c #656565",
"z.	c #818286",
"A.	c #7B7B7B",
"B.	c #A9A9A9",
"C.	c #9C9C9C",
"D.	c #E2E2E2",
"E.	c #B1B1B1",
"F.	c #CDCED0",
"G.	c #9A9CA0",
"H.	c #9B9B9B",
"I.	c #4F4F4F",
"J.	c #989898",
"K.	c #A4A4A4",
"L.	c #BEBEBE",
"              . +               ",
"          @ # $ % & * = -       ",
"      ; > , ' ) ! ~ { ] ^ /     ",
"    ( _ : < [ } | 1 2 3 4 5 6   ",
"    7 8 9 0 a b c d e f g h i   ",
"    j k l m n o p q 1 r s t u   ",
"    v w x y z A B C D E F G H I ",
"  J K L M N O P Q R S T U V W X ",
"Y Z `  ...+.@.#.$.%.&.*.=.-.;.>.",
"  ,.*.'.+.+.).#.!.~.{.].^./.(._.",
"  :.<.[.}.|.1.2.3.4.5.6.7.8.9.0.",
"    a.b.#.b.#.c.d.e.b.#.f.g.h.  ",
"    i.j.k.l.#.m.n.o.#.p.*.q.    ",
"        r.s.t.u.v.w.x.y.z.      ",
"          A.e.B.C.D.^.E.F.      ",
"        G.C.H.I.!.J.K.L.c.      "};
