/* XPM */
static char * C:\Users\Kevin\Desktop\New folder (5)\bitcoin32_xpm[] = {
"32 32 545 2",
"  	c None",
". 	c #4B5052",
"+ 	c #2D2F30",
"@ 	c #121310",
"# 	c #121410",
"$ 	c #111312",
"% 	c #0E110F",
"& 	c #0C100E",
"* 	c #2A2E2F",
"= 	c #604248",
"- 	c #241817",
"; 	c #0D140C",
"> 	c #10100C",
", 	c #0D0F09",
"' 	c #0B0F08",
") 	c #0C100B",
"! 	c #0F110F",
"~ 	c #0F1110",
"{ 	c #0F1210",
"] 	c #0D1310",
"^ 	c #251011",
"/ 	c #5A353B",
"( 	c #464C51",
"_ 	c #37393A",
": 	c #12130F",
"< 	c #15130E",
"[ 	c #0F110D",
"} 	c #0B0F09",
"| 	c #0B0D08",
"1 	c #090C04",
"2 	c #070B04",
"3 	c #090D08",
"4 	c #0C100D",
"5 	c #0D100F",
"6 	c #0E100E",
"7 	c #0C110E",
"8 	c #0F1111",
"9 	c #11120F",
"0 	c #0E1412",
"a 	c #0C0F11",
"b 	c #24272C",
"c 	c #191C18",
"d 	c #12150E",
"e 	c #10120E",
"f 	c #0D100A",
"g 	c #0E0E08",
"h 	c #0A0B07",
"i 	c #0C0E0D",
"j 	c #0F1112",
"k 	c #070B05",
"l 	c #0A0E09",
"m 	c #0B100D",
"n 	c #0D100E",
"o 	c #0F110E",
"p 	c #0E110E",
"q 	c #0D110F",
"r 	c #101110",
"s 	c #0C1312",
"t 	c #101314",
"u 	c #111516",
"v 	c #3D3F43",
"w 	c #141510",
"x 	c #12130E",
"y 	c #0C0E09",
"z 	c #0D0F0A",
"A 	c #555A5F",
"B 	c #26292B",
"C 	c #717578",
"D 	c #C1C8D3",
"E 	c #AFB3BF",
"F 	c #0E130F",
"G 	c #2B312D",
"H 	c #212321",
"I 	c #3E4042",
"J 	c #0D0E0A",
"K 	c #121411",
"L 	c #161818",
"M 	c #0F120D",
"N 	c #0F120F",
"O 	c #10110F",
"P 	c #0E1311",
"Q 	c #101312",
"R 	c #0E1111",
"S 	c #1D201B",
"T 	c #242827",
"U 	c #656972",
"V 	c #7F8188",
"W 	c #505256",
"X 	c #8A8F92",
"Y 	c #A1A4AD",
"Z 	c #777E83",
"` 	c #292E32",
" .	c #7E7F87",
"..	c #222326",
"+.	c #565B5D",
"@.	c #393B3E",
"#.	c #919499",
"$.	c #080A07",
"%.	c #A2A8B0",
"&.	c #B9BFCA",
"*.	c #202224",
"=.	c #1D1F1E",
"-.	c #121210",
";.	c #10120F",
">.	c #0F1310",
",.	c #0D130E",
"'.	c #1B1E1F",
").	c #151612",
"!.	c #666969",
"~.	c #A6ABAD",
"{.	c #424542",
"].	c #83898F",
"^.	c #10110D",
"/.	c #5E6063",
"(.	c #7D808B",
"_.	c #BBBECB",
":.	c #999CA2",
"<.	c #0A0F09",
"[.	c #585A5F",
"}.	c #91919A",
"|.	c #9DA0AA",
"1.	c #3C3F40",
"2.	c #6B6D6F",
"3.	c #333431",
"4.	c #5C5D65",
"5.	c #7C7C85",
"6.	c #38393E",
"7.	c #141515",
"8.	c #121514",
"9.	c #0C120E",
"0.	c #0B0F0E",
"a.	c #595D63",
"b.	c #565857",
"c.	c #191817",
"d.	c #72747B",
"e.	c #0C0C0A",
"f.	c #898E97",
"g.	c #070903",
"h.	c #696C6E",
"i.	c #7B7E84",
"j.	c #3B3C3E",
"k.	c #0B0C05",
"l.	c #090B05",
"m.	c #56585B",
"n.	c #3B3D3E",
"o.	c #90949A",
"p.	c #5D6265",
"q.	c #2D2E2F",
"r.	c #1A1C1A",
"s.	c #6E7178",
"t.	c #96979F",
"u.	c #5D5E63",
"v.	c #303134",
"w.	c #6C7071",
"x.	c #191D1D",
"y.	c #535559",
"z.	c #191B1D",
"A.	c #4B4C4F",
"B.	c #171715",
"C.	c #12120C",
"D.	c #707279",
"E.	c #0E110C",
"F.	c #868A90",
"G.	c #323439",
"H.	c #A6AAB0",
"I.	c #565A59",
"J.	c #353638",
"K.	c #0C0D07",
"L.	c #070904",
"M.	c #56585C",
"N.	c #38393A",
"O.	c #828686",
"P.	c #57595D",
"Q.	c #42434A",
"R.	c #4E5252",
"S.	c #595A5C",
"T.	c #74747C",
"U.	c #7D7E85",
"V.	c #3C3E40",
"W.	c #75787F",
"X.	c #94959B",
"Y.	c #1C1F1F",
"Z.	c #1A1C1B",
"`.	c #5D5F69",
" +	c #383839",
".+	c #13130F",
"++	c #11120D",
"@+	c #30312D",
"#+	c #989CA2",
"$+	c #2C2D2C",
"%+	c #10130D",
"&+	c #0B0E08",
"*+	c #080B03",
"=+	c #0D100B",
"-+	c #0B0C0A",
";+	c #0D110D",
">+	c #21211F",
",+	c #B6BBC3",
"'+	c #9EA3A8",
")+	c #5E5F67",
"!+	c #80838C",
"~+	c #464749",
"{+	c #A8ABB2",
"]+	c #797B82",
"^+	c #070804",
"/+	c #181A1D",
"(+	c #2E3134",
"_+	c #2C2C28",
":+	c #161613",
"<+	c #151512",
"[+	c #4E504E",
"}+	c #17120E",
"|+	c #1F130F",
"1+	c #240F0E",
"2+	c #2A0F0A",
"3+	c #2E0D0A",
"4+	c #2F0C09",
"5+	c #300B0A",
"6+	c #2B0C0A",
"7+	c #280D0A",
"8+	c #220D0B",
"9+	c #170C09",
"0+	c #110E0C",
"a+	c #12110F",
"b+	c #494B51",
"c+	c #5D5D67",
"d+	c #525357",
"e+	c #696C72",
"f+	c #7A7C80",
"g+	c #343437",
"h+	c #1A1C1D",
"i+	c #141719",
"j+	c #241E1C",
"k+	c #2B1914",
"l+	c #401B18",
"m+	c #400F0F",
"n+	c #410A0A",
"o+	c #3B0606",
"p+	c #360403",
"q+	c #310202",
"r+	c #300101",
"s+	c #2D0102",
"t+	c #340202",
"u+	c #3B0404",
"v+	c #430708",
"w+	c #47090A",
"x+	c #480B0E",
"y+	c #3E1013",
"z+	c #271210",
"A+	c #120E0C",
"B+	c #14161A",
"C+	c #47494B",
"D+	c #303131",
"E+	c #131615",
"F+	c #343537",
"G+	c #1A1B1C",
"H+	c #15191A",
"I+	c #471010",
"J+	c #390505",
"K+	c #310101",
"L+	c #250201",
"M+	c #220101",
"N+	c #1F0101",
"O+	c #1C0101",
"P+	c #160201",
"Q+	c #130100",
"R+	c #0E0101",
"S+	c #110506",
"T+	c #120505",
"U+	c #271B1B",
"V+	c #140404",
"W+	c #170303",
"X+	c #1B0101",
"Y+	c #240301",
"Z+	c #2E0201",
"`+	c #3D0405",
" @	c #4B0D10",
".@	c #3F1011",
"+@	c #280F11",
"@@	c #0F0E0C",
"#@	c #0D0E10",
"$@	c #151818",
"%@	c #161B1A",
"&@	c #602829",
"*@	c #370101",
"=@	c #280200",
"-@	c #260101",
";@	c #220201",
">@	c #190100",
",@	c #120201",
"'@	c #100808",
")@	c #3F3D3D",
"!@	c #838281",
"~@	c #747473",
"{@	c #838383",
"]@	c #6B6A6B",
"^@	c #B8B8B8",
"/@	c #F6F6F6",
"(@	c #0E0E0E",
"_@	c #BCBCBB",
":@	c #B7B6B6",
"<@	c #807F7E",
"[@	c #271C1A",
"}@	c #1A0302",
"|@	c #250101",
"1@	c #2D0201",
"2@	c #3C0607",
"3@	c #4A0E0F",
"4@	c #351212",
"5@	c #17100E",
"6@	c #171A1A",
"7@	c #52565E",
"8@	c #4D0D0B",
"9@	c #2E0404",
"0@	c #290201",
"a@	c #260201",
"b@	c #140102",
"c@	c #131010",
"d@	c #020102",
"e@	c #262626",
"f@	c #ABAAAB",
"g@	c #616161",
"h@	c #FAFAFA",
"i@	c #FCFCFC",
"j@	c #FEFEFE",
"k@	c #C1C1C1",
"l@	c #020202",
"m@	c #3F3F3F",
"n@	c #FCFCFB",
"o@	c #AAA9AA",
"p@	c #808281",
"q@	c #575453",
"r@	c #130202",
"s@	c #220202",
"t@	c #270301",
"u@	c #340303",
"v@	c #4D0F14",
"w@	c #251112",
"x@	c #151816",
"y@	c #474A50",
"z@	c #916971",
"A@	c #320303",
"B@	c #2F0201",
"C@	c #280100",
"D@	c #150705",
"E@	c #5E5B5C",
"F@	c #6C6C6D",
"G@	c #020101",
"H@	c #010101",
"I@	c #141414",
"J@	c #0C0C0C",
"K@	c #F8F8F8",
"L@	c #FFFFFF",
"M@	c #8F8F8F",
"N@	c #3E3E3F",
"O@	c #656565",
"P@	c #3A3A3B",
"Q@	c #505050",
"R@	c #B3B3B2",
"S@	c #110A0A",
"T@	c #1A0202",
"U@	c #2A0301",
"V@	c #4C0E14",
"W@	c #1C1512",
"X@	c #3C3D43",
"Y@	c #361011",
"Z@	c #2D0203",
"`@	c #240100",
" #	c #170506",
".#	c #80807F",
"+#	c #959495",
"@#	c #515151",
"##	c #000000",
"$#	c #040404",
"%#	c #EDEDED",
"&#	c #7A7A7A",
"*#	c #111111",
"=#	c #FBFBFB",
"-#	c #5A5B5A",
";#	c #777674",
">#	c #221413",
",#	c #230101",
"'#	c #290402",
")#	c #391315",
"!#	c #45484D",
"~#	c #270302",
"{#	c #150201",
"]#	c #6A6869",
"^#	c #A1A3A2",
"/#	c #9F9F9F",
"(#	c #525252",
"_#	c #E7E7E7",
":#	c #090909",
"<#	c #F7F7F7",
"[#	c #5C5A5B",
"}#	c #B9B9B9",
"|#	c #ACABAB",
"1#	c #464241",
"2#	c #1C0201",
"3#	c #3B1114",
"4#	c #44494B",
"5#	c #1E1B1A",
"6#	c #B4B4B5",
"7#	c #9C9A9B",
"8#	c #A6A6A6",
"9#	c #909090",
"0#	c #101010",
"a#	c #030303",
"b#	c #121212",
"c#	c #F3F3F3",
"d#	c #B7B7B7",
"e#	c #1E1E1E",
"f#	c #171717",
"g#	c #070707",
"h#	c #252525",
"i#	c #FDFDFD",
"j#	c #626363",
"k#	c #BBBBBB",
"l#	c #B6B5B5",
"m#	c #B9B8B9",
"n#	c #6E6D6B",
"o#	c #1D0F0E",
"p#	c #545658",
"q#	c #4A4A48",
"r#	c #B6B6B4",
"s#	c #98989A",
"t#	c #AAAAAA",
"u#	c #DFDFDF",
"v#	c #535353",
"w#	c #585858",
"x#	c #727272",
"y#	c #565656",
"z#	c #F9F9F9",
"A#	c #636363",
"B#	c #696969",
"C#	c #6C6C6C",
"D#	c #8A8A8A",
"E#	c #5B5B5B",
"F#	c #BABABA",
"G#	c #B5B6B5",
"H#	c #949594",
"I#	c #010201",
"J#	c #626262",
"K#	c #B6B6B7",
"L#	c #929291",
"M#	c #C9C9C9",
"N#	c #BCBCBC",
"O#	c #ABABAB",
"P#	c #ACACAC",
"Q#	c #E3E3E3",
"R#	c #C5C5C5",
"S#	c #E9E9E9",
"T#	c #8D8D8D",
"U#	c #A0A0A0",
"V#	c #9A9A9A",
"W#	c #B5B5B6",
"X#	c #B6B6B5",
"Y#	c #737473",
"Z#	c #010103",
"`#	c #797B84",
" $	c #838285",
".$	c #838382",
"+$	c #555555",
"@$	c #B5B5B4",
"#$	c #B7B7B8",
"$$	c #1D1D1D",
"%$	c #080809",
"&$	c #606163",
"*$	c #E6E6E6",
"=$	c #EEEEEE",
"-$	c #929292",
";$	c #DBDBDB",
">$	c #B3B3B3",
",$	c #606060",
"'$	c #B4B4B4",
")$	c #7D7D7D",
"!$	c #4B4C53",
"~$	c #95979A",
"{$	c #545454",
"]$	c #D7D7D6",
"^$	c #CDCDCD",
"/$	c #A7A7A7",
"($	c #E5E5E5",
"_$	c #A9A9A9",
":$	c #C8C8C8",
"<$	c #858585",
"[$	c #161616",
"}$	c #3E3F44",
"|$	c #B8B8B9",
"1$	c #5A5A5A",
"2$	c #959496",
"3$	c #F8F8F6",
"4$	c #FEFEFF",
"5$	c #545554",
"6$	c #9F9F9E",
"7$	c #37393D",
"8$	c #636565",
"9$	c #B3B4B4",
"0$	c #2C2C2D",
"a$	c #797979",
"b$	c #C1C1C0",
"c$	c #7B7B7B",
"d$	c #D3D3D3",
"e$	c #D5D5D5",
"f$	c #A2A2A2",
"g$	c #767676",
"h$	c #757575",
"i$	c #282828",
"j$	c #676767",
"k$	c #6B6C70",
"l$	c #4A4B4E",
"m$	c #272728",
"n$	c #EFEFEF",
"o$	c #888888",
"p$	c #7C7C7C",
"q$	c #434343",
"r$	c #BFBFBF",
"s$	c #ABACAC",
"t$	c #9A9B9F",
"u$	c #787878",
"v$	c #D8D8D8",
"w$	c #F2F2F2",
"x$	c #6F6F6F",
"y$	c #5D5D5D",
"z$	c #828389",
"A$	c #757576",
"B$	c #868686",
"C$	c #D2D2D2",
"D$	c #9B9B9B",
"E$	c #B5B6B9",
"F$	c #D5D6D5",
"G$	c #7D7D7E",
"H$	c #383838",
"I$	c #575757",
"J$	c #E4E4E4",
"K$	c #707070",
"L$	c #BEBEBE",
"M$	c #C5C5C6",
"N$	c #6A6C75",
"O$	c #CECECF",
"P$	c #838583",
"Q$	c #B5B5B5",
"R$	c #6E6E6E",
"S$	c #A8A8A8",
"T$	c #E6E7E6",
"                                .                               ",
"                          + @ # $ % & *                         ",
"                    = - ; > , ' ) ! ~ { ] ^ / (                 ",
"                _ : < [ } | 1 2 3 4 5 6 7 8 9 0 a b             ",
"              c d e f g h i j k l m n o p q p r s t u v         ",
"            w x y z A B C D E F G H I J K L M N O P Q R         ",
"          S T U V W X Y Z `  ...+.@.#.$.%.&.*.=.-.;.>.,.'.      ",
"          ).!.~.{.].^./.(._.:.<.[.}.|.1.2.3.4.5.6.7.8.9.0.a.    ",
"        b.c.> d.e.f.g.h.i.j.k.l.m.n.o.p.q.r.s.t.u.v.w.x.y.z.    ",
"        A.B.C.D.E.F.G.H.I.J.K.L.M.N.O.P.Q.R.S.T.U.V.W.X.Y.Z.`.  ",
"         +.+C.d.++@+#+$+%+&+k.*+=+-+;+>+,+'+9 )+!+~+{+]+^+/+(+  ",
"        _+:+<+[+}+|+1+2+3+4+5+6+7+8+9+0+a+5 ! b+c+d+e+f+g+h+i+  ",
"        j+k+l+m+n+o+p+q+r+s+r+r+t+u+v+w+x+y+z+A+B+C+D+E+F+G+H+  ",
"        I+J+K+L+M+N+O+P+Q+R+S+T+U+V+W+X+Y+Z+`+ @.@+@@@#@i $@%@  ",
"    &@*@=@-@;@>@,@'@)@!@~@{@]@^@/@(@_@:@<@[@}@|@1@2@3@4@5@! 6@7@",
"  8@9@0@a@;@b@c@d@e@f@/@g@h@i@j@k@l@m@n@j@o@p@q@r@s@t@u@v@w@x@y@",
"z@A@B@C@|@D@E@F@G@H@H@I@J@K@L@L@M@H@H@N@O@P@Q@j@R@S@T@a@U@V@W@X@",
"  Y@Z@`@ #.#+#@#########$#%#L@L@&#H@########*#=#i@-#;#>#,#'#)#!#",
"    ~#{#]#^#/#(#H@####H@$#_#L@L@{@H@H@##H@##:#<#j@[#}#|#1#2#3#4#",
"      5#6#7#8#9#0#a#H@b#:#c#L@L@d#e#f#H@H@g#h#i#L@j#k#l#m#n#o#p#",
"      q#r#s#t#u#v#w#a#x#y#j@L@L@z#A#B#H@$#C#D#j@L@E#F#l#G#H#I#  ",
"      J#K#L#}#j@M#N#O#P#Q#R#S#L@L@^@k@T#U#V#K@L@i#v#}#W#X#Y#Z#  ",
"      `# $.$z#j@j@i#z#L@L@j@j@j@j@j@i#z#=#L@L@L@i@+$^@@$#$$$%$  ",
"        &$*$j@L@L@L@L@L@L@i#k@=$-$;$>$L@L@L@L@L@c#,$'$'$)$H@!$  ",
"        ~${$]$j@L@L@L@L@L@j@^$/$($_$*$L@L@L@L@L@:$<$G#_$[$}$    ",
"          |$1$2$3$L@4$i@i@L@L@L@L@L@L@L@L@L@i#^$5$^@6$7$        ",
"          8$9$  0$a$b$c$V#-$-$d$e$u#f$g$h$,$i$j${$k$            ",
"                  l$m$;$j@n$Q#@#o$A#n$i@=#p$q$r$s$              ",
"                  t$u$g$j@v$8#V#K@E#V#w$=#x$y$L@j@z$            ",
"                  r$A$B$C$i#c#x$>$B#i#i#D$'$B#L@L@E$            ",
"                  F$G$^@x#o$i$g#H$H@I$J$K$L$)$L@L@M$            ",
"                N$O$P$Q$^@F#R$D$F#j$S$a$8#F#&#L@L@T$            "};
